<?xml version="1.0" encoding="UTF-8"?>
<svg id="Camada_1" data-name="Camada 1" xmlns="http://www.w3.org/2000/svg" xmlns:xlink="http://www.w3.org/1999/xlink" viewBox="0 0 1080 1080">
  <defs>
    <style>
      .cls-1 {
        fill: url(#Gradiente_sem_nome_5);
      }

      .cls-2 {
        fill: url(#Gradiente_sem_nome_2);
      }

      .cls-3 {
        fill: #fff;
      }

      .cls-4 {
        fill: #e54b6d;
      }

      .cls-5 {
        fill: #b7476a;
      }

      .cls-6 {
        fill: url(#Gradiente_sem_nome_4);
      }

      .cls-7 {
        fill: url(#Gradiente_sem_nome_3);
      }

      .cls-8 {
        fill: #ea503a;
      }

      .cls-9 {
        fill: rgba(255, 255, 255, .97);
      }
    </style>
    <linearGradient id="Gradiente_sem_nome_5" data-name="Gradiente sem nome 5" x1="273.27" y1="1272.95" x2="1377.52" y2="507.71" gradientTransform="translate(0 1082) scale(1 -1)" gradientUnits="userSpaceOnUse">
      <stop offset="0" stop-color="#eb583e"/>
      <stop offset="1" stop-color="#f39772"/>
    </linearGradient>
    <linearGradient id="Gradiente_sem_nome_2" data-name="Gradiente sem nome 2" x1="665.12" y1="1155.57" x2="1270.25" y2="770.58" gradientTransform="translate(0 1082) scale(1 -1)" gradientUnits="userSpaceOnUse">
      <stop offset="0" stop-color="#f18942"/>
      <stop offset="1" stop-color="#fcc973"/>
    </linearGradient>
    <linearGradient id="Gradiente_sem_nome_3" data-name="Gradiente sem nome 3" x1="177.46" y1="1363.77" x2="629.82" y2="1080.13" gradientTransform="translate(0 1082) scale(1 -1)" gradientUnits="userSpaceOnUse">
      <stop offset="0" stop-color="#eb6126"/>
      <stop offset="1" stop-color="#f28b43"/>
    </linearGradient>
    <linearGradient id="Gradiente_sem_nome_4" data-name="Gradiente sem nome 4" x1="-175.58" y1="970.24" x2="1251.63" y2="-24.29" gradientTransform="translate(0 1082) scale(1 -1)" gradientUnits="userSpaceOnUse">
      <stop offset="0" stop-color="#e73646"/>
      <stop offset="1" stop-color="#ef7874"/>
    </linearGradient>
  </defs>
  <g>
    <path class="cls-4" d="M-28.62-194.52h1140.48v1710.72H-28.62V-194.52Z"/>
    <path class="cls-1" d="M-28.62-194.52h1140.48V974.91c-3.95-6.59-11.85-25.67-15.87-33.9-10.41-21.16-22.17-41.62-35.2-61.27-92.47-139.22-234.41-234-392.93-282.71-18.3-5.62-36.99-10.61-55.13-16.68-64.29-21.53-124.13-54.99-173.68-101.59-86.53-81.38-137.38-193.57-198.67-294.15C192.35,105.81,155.21,57.36,92.66-8.08c-2.53-1.59-21.47-20.4-25.3-23.89C44.19-52.97,19.97-72.78-5.21-91.32c-5.51-4.06-17.83-13.2-23.4-15.73v-87.46Z"/>
    <path class="cls-2" d="M727.15-194.52h384.72v725.62c-1.09,6.19-.82,33.52-.71,40.95-27.89-3.69-74.36-18.97-99.19-28.66-105.47-39.88-176.72-125.08-241.88-213.16-66.28-89.6-132.55-152.85-239.91-191.96l3.1-.71c3.97-3.49,7-9.61,10.71-13.75,9.58-10.14,17.3-19.49,24.75-31.21,15.31-24.05,30.05-49.55,45.46-73.43l85.81-134.07c11.61-18.21,23.3-36.58,35.18-54.53,4.44-6.71-10.98-9.6,4.93-13.75-.27.07,3.72-6.21,4.03-6.67l4.57-.62c-4.75-.55-13.22-.81-18.17-1.34-1.35-1.08-2.48-1.99-3.39-2.71Z"/>
    <path class="cls-7" d="M152.07-194.52h575.08c.91.73,2.04,1.63,3.39,2.71,4.96.53,13.42.79,18.17,1.34l-4.57.62c-.31.46-4.3,6.74-4.03,6.67-15.9,4.15-.49,7.05-4.93,13.75-11.88,17.95-23.57,36.32-35.18,54.53l-85.81,134.07c-15.41,23.88-30.15,49.37-45.46,73.43-7.46,11.73-15.17,21.07-24.75,31.21-3.71,4.14-6.73,10.26-10.71,13.75l-3.1.71c-35.61-12.87-65.28-17.86-101.3-25.69-92.88-20.2-178.48-70.44-236.83-146.05-12.29-15.93-21.28-30.57-32.04-47.38-.96-2.98-14.18-27.37-16.43-32.27-12.63-27.46-19.52-49.81-26.38-78.88,12.07-1.55,23.94-1.04,34.88-2.52Z"/>
    <path class="cls-8" d="M-28.62-194.52h180.68c-10.93,1.48-22.81.97-34.88,2.52,6.86,29.07,13.75,51.42,26.38,78.88,2.25,4.9,15.47,29.29,16.43,32.27-.04.16-.07.33-.11.49,3.19,16.04,19.34,28.69,25.58,43.52.41.96-3.61,7.18-5.05,8.16-4.79,3.27-8.55,3.07-11.07,8.75-1.26,2.85-2.65,10.62-3.82,12.15-7.6,9.92-18.8,17.28-27.29,26.48-.18.19-2.13-.04-2.43-.08-3.14-.43-3.94-2.28-6.5-.87-.78,3.45,1.51,8.59,2.79,12.05-5.44-2.13-34.68-38.86-38.69-39.02l-.75,1.14c-2.53-1.59-21.47-20.4-25.3-23.89C44.19-52.97,19.97-72.78-5.21-91.32c-5.51-4.06-17.83-13.2-23.4-15.73v-87.46Z"/>
    <path class="cls-6" d="M-28.62-107.06c5.57,2.53,17.9,11.68,23.4,15.73,25.18,18.55,49.4,38.36,72.57,59.35,3.83,3.49,22.77,22.3,25.3,23.89,62.55,65.44,99.69,113.9,147.71,192.69,61.3,100.58,112.14,212.77,198.67,294.15,49.55,46.6,109.39,80.06,173.68,101.59,18.14,6.07,36.83,11.06,55.13,16.68,158.53,48.71,300.47,143.49,392.93,282.71,13.04,19.65,24.79,40.12,35.2,61.27,4.02,8.23,11.92,27.31,15.87,33.9v356.09c-2.86-5.25-7.85-38.61-9.6-46.67-11.17-52.44-33.96-101.71-66.7-144.18-75.62-97.7-214.74-172.49-321.99-233.56-58.87-33.17-117.09-67.46-174.63-102.88-120.47-73.54-232.74-159.7-334.93-257.05C121.11,466.27,44.99,374.26-8.3,271.37c-5.73-11.07-13.04-30.78-19.84-40.26l-.48-.66V-107.06Z"/>
    <path class="cls-5" d="M-28.62,703.75c29.54,10.89,60.79,27.31,87.84,43,123.13,71.37,228.16,180.05,275.71,316.04,5.05,14.44,9.38,29.31,14.74,43.65,7.66,20.12,16.73,39.67,27.15,58.51,83.28,150.61,257.81,251.99,414.61,309.84,26.23,9.81,52.8,18.7,79.65,26.65,13.97,4.16,37.18,9.8,49.73,14.76H-28.62v-812.45Z"/>
  </g>
  <path class="cls-3" d="M830.01,438.11c22.72-1.26,39.71,10.35,43.96,33.21,5.14,27.69,2.44,65.32-31.08,72.54-.21.03-.42.06-.63.08-33.42,4.23-46.36-24.06-45.92-52.92.21-13.47,1.6-28.42,10.02-39.48,5.09-6.7,15.27-12.46,23.65-13.43ZM839.32,524.66c15.74-6.61,14.14-36.2,12.3-50.1-1.52-11.48-8.14-19.47-20.34-18.53-16.41,11.84-19.5,65.27,3.7,68.85,1.44.24,2.92.16,4.34-.22Z"/>
  <path class="cls-3" d="M506.07,432.4c5.04-.2,12.79-.32,17.8-.1,12.71.57,27.9,1.84,36.96,11.83,10.2,11.25,13.75,27.57,13.25,42.39-.42,12.39-5.28,29.86-14.49,38.33-13.68,11.93-39.45,11.24-56.44,11.27-.67-11.39-2.61-95.91.77-102.58.41-.82,1.35-.89,2.16-1.14ZM524.24,517.91c6.28-.96,15.44-2,20.09-6.87,8.15-11.85,8.17-27.44,6.06-41.14-2.62-16.94-12.31-16.84-25.48-19.99-1.29,2.17-.29,60.1-.67,67.99Z"/>
  <path class="cls-3" d="M194.24,428.2c10.76-.01,23.52-.27,34.11.29,3.41,19.11,8.33,37.34,13.67,55.96,3.44,12.4,6.53,24.89,9.88,37.31,1.8,6.66,3.98,13.22,5.72,19.9-9.76.42-16.9,1.13-26.89.88-1.51-4.76-4.18-19.69-5.49-25.56-2.62-.64-23.98.17-27.95.34-2.05,9.67-3.31,18.69-6.1,28.35-8.35.83-16.77.51-25.18.71,1.65-5.55,2.73-12.15,4.28-17.89,5.78-21.37,10.31-43.01,15.15-64.54,1.56-6.92,6.34-30.26,8.78-35.74ZM202.1,497.54c3.61.33,6.01.61,9.64.33l9.29-.73c-2.25-6.65-7.44-40.91-9.97-43.43-4.51,13.06-6.72,30.16-8.96,43.83Z"/>
  <path class="cls-3" d="M624.18,433.91c7.16.06,14.72-.61,21.77.39,1.41.2,3.12,3.21,3.71,4.42,10.27,20.87,18.63,42.22,29.76,62.7.19-5.03-.4-10.12-.22-15.03.59-16.63-1.16-35.15.27-51.63,6.65-.17,13.36.23,20.14-.05-.53,9.35-.05,23.86-.05,33.66v68s-.35.35-.35.35c-2.33.66-20.24.09-23.98.06-3.06-4.82-6.24-13.14-8.68-18.51-7.09-15.6-13.42-33.25-22.7-47.6-.77,20.77-.26,44.54-.26,65.53-5.07-.45-13.64-.14-18.97-.11-1.74-26.09-.85-52.19-1.07-78.33-.06-7.57-.4-16.47.62-23.86Z"/>
  <path class="cls-3" d="M351.73,431.22c1.47-.12,3.73-.02,5.27,0,.83,5.51.64,12.5.63,18.15l-.06,24.75c6.45-1.15,21.36-1.29,27.8.07-.24-13.94.85-29.38.06-42.81,7.16.11,14.28.46,21.44.51.51,22.16.7,44.32.59,66.48.02,10.59.58,27.99-.73,38.1-5.83.4-11.94.35-17.8.36-1.25.09-1.52.13-2.75-.15-2.13-2.27-.85-37.07-.79-43.05-3.51.03-7.48-.44-11.17-.44-5.38,0-11,.22-16.34-.02.33,9.54-.04,19.36.07,28.92.06,5.34-.28,11.23.6,16.48-8.16-.51-13.91-.37-22,.04-1.29-19.75-.32-41.76-.63-61.71-.13-8.39-1-38.52,1.06-44.64,1.46-1.06,11.93-.87,14.74-1.04Z"/>
  <path class="cls-3" d="M715.44,435.1c5.62,0,10.56.21,16.15.51,1.03.29,2.73.6,3.37,1.34.46,6.68-.51,15,.96,21.17.29,6.28.54,12.78.33,19.06,8.15.04,19.4-.19,27.22.54-.96-10.37-.8-30.09-.05-40.48,7.14-.08,14.28-.11,21.41-.08.87,13.61.44,33.04.5,46.99.07,15.05.89,41.86-1.59,55.83-6.41-.37-13.44-.55-19.86-.7-.88-13.92-.59-29.26-.54-43.31-3.84.16-8.52-.02-12.47,0-4.32.03-10.47.42-14.6-.07.22,14.17-.18,28.44.09,42.64-7.08-.25-13.9-.5-20.99-.44-1.14-5.92-1.06-17.49-1.06-23.83v-28.86c0-12.3-.69-24.23,0-36.51.25-4.47.08-9.47,1.11-13.82Z"/>
  <path class="cls-3" d="M458.25,431.62c3.76-.15,6.58-.06,10.33.12,3.38,18.39,9.06,36.96,13.95,55.06,4.26,15.77,7.71,33.34,12.85,48.74-6.21.72-16.88.37-23.23-.32-1.66-5.06-4.37-17.12-5.37-22.44-5.07.07-10.14-.05-15.2-.33-3.29-.04-7.07.09-10.22-.71l-4.72,24.75-22.81-.07c2.47-7.74,4.82-18.29,6.81-26.33l12.41-49.98c1.51-5.89,5.36-22.1,8.07-26.68,3.87-1.55,12.66-1.64,17.11-1.8ZM445.95,494.56c2.62.1,5.41.26,8.01.22,2.41-.03,6.08.02,8.36-.3-.3-4.08-5.43-36.94-7.77-38.64-3.97,8.4-7.44,29.25-8.6,38.72Z"/>
  <path class="cls-3" d="M914.75,442.24c6.71-.68,22.19,3.17,26.85,8.02,3.13,3.26,1.51,14.14,1.12,18.32-6.46-3.32-14.23-6.35-21.46-7.14-3.35-.36-7.69-.38-10.42,1.89-1.53,1.27-3.16,3.97-3.27,5.96-.46,8.22,25.91,23.41,32.26,30.78,5.09,5.9,8.75,13.71,8.1,21.65-.58,7.13-4.56,14.56-10,19.17-8.23,6.99-20.12,7.62-30.41,6.75-6.69-1.03-18.69-3.86-23.46-9.11-2-2.2.68-15.89,1.28-19.58,11.7,7.73,31.18,18.5,40.66,2.13-4.16-13.95-18.63-17.77-28.85-26.33-7-5.86-13.01-13.49-13.94-22.9-.67-6.8,2.29-14.74,6.62-19.94,6.39-7.69,15.58-8.84,24.92-9.67Z"/>
  <path class="cls-3" d="M299.17,430.78c9.94-.69,19.66,3.17,27.66,8.81-2.12,5.79-4.84,10.2-8.56,15.04-24.29-8.66-31.65-4.35-36.37,23.4-1.91,11.24,1.07,28.83,7.57,38.13,6.55,9.38,22.44,1.2,32.58,2.29.79,3.77,1.66,7.65,2.22,11.45.41,1.37.62,3,.84,4.43-34.41,17.08-61.51-.11-66.15-36.91-2.2-17.39.99-37.78,11.26-52.28,5.74-8.11,19.42-13.23,28.96-14.36Z"/>
  <path class="cls-3" d="M289.13,580.35c13.48-.59,36,.37,42.83,13.78,7.3,14.34,2.53,29.26-11.34,36.78-15.4,5.9-25.65,3.72-40.87,4.08-.34-17.21-1.72-37.35-.76-54.39,3.46.01,6.69-.1,10.15-.25ZM292.66,599.62c-.53,4.48-1.17,21.19.15,24.9,6.59-.66,14.89-1,20.75-4.04,6.13-3.19,10.01-13.44,6.24-19.64-5.89-9.68-18.08-8.25-27.41-10.72.23,3.16.33,6.33.28,9.5Z"/>
  <path class="cls-9" d="M292.66,599.62c.51,3.47.66,21.08.15,24.9-1.32-3.71-.67-20.42-.15-24.9Z"/>
  <path class="cls-3" d="M372.67,580.73c8.41-.72,15.98.09,23.13,4.97,6.09,4.16,10.25,10.59,11.55,17.84,3.24,17.93-10.35,28.8-26.65,31.59-41.54,3.07-48.66-49.15-8.03-54.4ZM378.83,623.52c5.16-1.14,9.03-2.87,12.02-7.5,2.26-3.49,3.03-7.73,2.14-11.79-.91-4.01-3.38-7.49-6.88-9.66-3.35-2.08-6.99-2.72-10.87-2.46-22.05,6.88-18.19,28.92,3.6,31.41Z"/>
  <path class="cls-3" d="M449.35,580.63c7.27-.63,14.88-.64,22.16-.49,20.96.43,33.41,5.47,21.26,27.37,7.56,5.21,11.21,10.91,5.85,19.52-4.08,6.55-19.08,7.68-26.06,8-3.71-.96-18.32-.52-22.83-.49.01-2.11.27-4-1.05-5.56-1.05-4.75-.24-42.6.68-48.36ZM462.58,612.12c.11,4.64.64,8.15-.18,12.69,4.06-.26,11.81-.34,15.31-.83,2.61-.14,5.11-.26,7.72-.56.89-7.68-.76-10.41-8.94-11.27-2.21-.24-4.43-.35-6.65-.34-2.24.12-5.06.35-7.25.31ZM462.47,602.77c5.42-.28,15.21-.53,20.29-1.42,4.65-14.79-12.22-9.81-20.36-11.14.2,3.48.33,9.06.06,12.55Z"/>
  <path class="cls-3" d="M514.71,580.13c5.38.24,12.66.31,18.62.07,13.74-.55,28.18,1.16,31.06,17.5,1.22,6.95-5.27,15.1-9.62,20.39,4.22,4.17,8.07,11.7,10.63,17.13l-5.1.05c-11.93-.97-12.02-2.08-17.67-12.19-2-3.57-10.52-2.69-14.27-2.98l.08,14.52c-3.55-.28-9.37-.1-13.09-.1-1.01-9.51-.91-19.79-.88-29.34.03-8.27-.07-16.82.25-25.06ZM547.33,606.56c3.68-11.07-.26-14.13-11.31-14.79-1.86-.11-6.05-.84-7.62-.31l-.32.84c-.71,3.66-1.13,13.14.08,16.58,3.31.3,15.65-1.21,19.17-2.32Z"/>
  <path class="cls-9" d="M528.08,592.31c.41,3.01.6,13.57.08,16.58-1.21-3.44-.8-12.92-.08-16.58Z"/>
  <path class="cls-3" d="M587.01,433.56c6.63-.15,13.5-.05,20.16-.04l.5,90.07c0,2.55.1,10.45-1.47,12.02-6.64.02-13.03.03-19.66.61-1.22-13.41-.18-33.04-.14-46.93.03-9.29-1.43-49.01.61-55.71Z"/>
  <path class="cls-3" d="M647.44,580.05c1.69.23,4.96.47,6.43.72,11.78,2.02,25.35,22.94,32.09,32.26-.65-7.82-.41-25.3.31-32.95,5.04.73,9.19.6,14.19.07-.3,5.97.19,12.12.33,18.12.19,8.03.07,16.07-.36,24.1-.17,3.33-.29,8.39-.96,11.45-1.07.85-4.45,1.07-5.61.88-12.22-1.97-25.21-23.55-32.89-32.45.79,8.27-.08,23.65-.16,32.4-3.68-.28-9.43-.1-13.26-.09-.98-18.15-1.01-36.35-.11-54.5Z"/>
  <path class="cls-3" d="M600.94,580.25c13.63.96,14.51,7.86,19.78,19.07l10.29,21.95c1.94,4.19,4.43,10.15,6.66,14.04-22.76.12-12.79-9.58-28.05-11.77-5.28-.14-12.37-.2-17.43-1.2-2.78,14.43-6.5,12.31-18.82,12.21,2.74-9.47,18.94-51.61,27.57-54.29ZM605.52,611.63c2.02.02,4.46-.02,6.44.14-1.12-2.82-5.3-15.12-7.1-16.24-2.1,3.14-8.89,12.19-4.21,15.57.9.65,3.66.53,4.87.53Z"/>
  <path class="cls-3" d="M795.59,580.3c3.27-.01,6.68-.04,9.48,1.91,5.78,4.03,22.37,44.24,23.93,52.63-15.14,5.02-12.4-9.78-26.37-10.9-5.15-.05-10.52-.11-15.57-1.12-1.4,3.91-3.42,8.35-6.3,11.33-1.1.29-2.22.59-3.35.79-2.06.37-5.88.53-7.62-.74-.6-.44-.99-.81-1.1-1.58-.78-5.38,18.38-43.58,22.56-49.48,1.29-1.82,2.08-2.45,4.34-2.84ZM791.73,612.39c2.51.24,5.69.64,8.15.54,1.75.1,2.25.42,3.66-.34,2.03-3.44-3.34-14.13-5.68-15.1-1.7,4.97-3.55,10.32-6.14,14.9Z"/>
  <path class="cls-3" d="M730.65,580.71c5.46-.22,28.36-1.19,26.91,8.05-1.44,9.18-26.63-2.04-28.73,6,1.48,6.84,27.55,10.35,31.36,18.39,2.7,5.7,1.39,10.72-2.62,15.3-4.63,5.29-10.81,6.49-17.44,6.89-5.89.05-27.33.17-26.14-9.8,1.73-14.5,21.8,5.05,28.85-2.36,1.62-1.7,3.35-3.76.52-5.79-14.11-8.46-32.05-5.2-28.37-27.73,4.14-5.19,9.16-8,15.66-8.96Z"/>
  <path class="cls-9" d="M448.66,628.99c1.32,1.56,1.07,3.45,1.05,5.56,4.51-.03,19.13-.47,22.83.49-4.33.68-18.91.36-23.77.36l-.11-6.4Z"/>
  <path class="cls-9" d="M731.59,435.61c1.52-.07,3.13-.33,4.37.48.35,2.02-.02,18.92-.05,22.04-1.46-6.17-.5-14.49-.96-21.17-.63-.74-2.33-1.05-3.37-1.34Z"/>
</svg>