<?xml version="1.0" encoding="utf-8" ?><svg xmlns="http://www.w3.org/2000/svg" xmlns:xlink="http://www.w3.org/1999/xlink" width="424" height="212" viewBox="0 0 424 212"><path fill="#FEFEFE" d="M40.6628 25.1026C52.3325 25.0698 64.7357 25.6923 76.3914 26.1649L108.49 27.2288L259.845 32.2095L338.546 34.6145C343.952 34.7639 377.5 35.0604 381.03 36.3934C382.427 36.3588 387.306 36.1341 387.668 37.1078C388.652 39.758 387.093 49.5051 386.79 52.0581L384.641 70.4198L377.869 128.315L374.413 157.854C373.962 161.751 373.197 171.026 372.037 174.415C371.021 175.233 369.593 175.321 368.326 175.32C361.938 175.314 355.531 175.032 349.147 174.826L316.017 173.836L285.196 172.889C282.443 172.812 270.796 172.891 268.621 172.27C265.177 172.167 261.359 172.496 257.871 172.563C247.633 172.758 237.421 173.408 227.186 173.767C196.254 174.754 165.329 175.938 134.412 177.318L83.8126 179.401L63.714 180.188C60.3878 180.334 55.2108 180.402 52.0607 180.978C51.6903 177.165 50.9634 169.809 50.975 166.245C50.418 166.013 49.6191 166.021 49.0148 165.97C44.6279 165.601 43.764 165.832 43.401 161.247C42.9167 155.129 42.5198 148.992 42.0996 142.863L39.7601 109.74L37.3814 75.6144C36.8504 68.2465 36.3109 60.893 35.9032 53.516C35.5664 47.421 36.8368 48.0244 42.3591 47.7304C41.7283 40.0849 41.5828 32.7542 40.6628 25.1026ZM44.7785 47.7628C46.1494 47.7019 47.6722 47.6818 49.0088 47.4372C50.3903 47.4568 51.9197 47.4465 53.2862 47.5142C53.1036 45.2184 52.8564 42.4358 52.5145 40.1821C52.4101 38.933 52.2107 37.6613 52.9396 36.6172C54.6163 35.546 74.1509 36.7066 77.7969 36.832L119.634 38.1847C123.939 38.243 128.243 38.3714 132.544 38.57C135.766 38.8954 140.906 38.9334 144.192 39.01C150.37 39.1075 156.546 39.2899 162.719 39.5571L189.944 40.421C202.562 40.9116 217.131 41.6258 229.704 41.6651C232.414 41.4129 237.062 41.4689 239.849 41.4234C245.53 41.4107 252.701 40.9219 258.492 40.7136L290.155 39.6468C299.506 39.263 311.078 39.3328 320.129 38.5369C322.91 38.4861 325.917 38.5008 328.666 38.1933L328.851 38.2057C331.523 38.526 348.254 37.8063 350.779 37.3001C346.043 37.3321 341.195 37.0102 336.356 37.0038C332.752 37.0268 329.024 36.8047 325.364 36.7826C322.288 36.506 318.883 36.4583 315.759 36.3371C311.724 36.1805 307.129 35.8466 303.128 35.9644C302.026 35.8038 300.18 35.7176 299.017 35.6271C291.029 35.2559 283.065 35.1006 275.079 34.8342C265.616 34.5185 256.322 34.0082 246.853 33.9765C245.628 33.7031 238.522 33.6142 236.783 33.5462C228.898 33.2379 220.896 33.1652 213.013 32.738C211.761 32.559 210.778 32.6117 209.541 32.5586C201.507 32.2139 193.122 32.4316 185.122 31.8731C179.623 31.4343 173.78 31.4958 168.218 31.3154L134.274 30.2056L74.7466 28.2588C70.3038 28.1112 46.4298 26.9418 43.6855 27.7622C42.9395 29.6924 44.4599 43.647 44.7578 46.7187L44.7785 47.7628ZM115.397 167.752C113.914 167.872 110.287 167.761 108.663 167.751L76.4406 168.986C73.7901 169.083 65.8808 169.684 63.8097 169.44C62.576 168.805 62.2317 167.632 61.7738 166.377C60.1241 166.299 54.6501 165.749 53.5932 166.321C53.448 166.667 53.3543 166.806 53.3834 167.185C53.7367 170.127 53.2176 175.921 54.9292 177.864C56.2922 178.524 65.1843 177.899 67.0289 177.829C93.0381 176.832 119.031 175.622 145.045 174.744C162.012 174.171 179.072 172.848 196.043 172.973C198.292 172.99 201.051 172.647 203.26 172.223C204.407 172.266 205.532 172.144 206.676 172.049C213.057 172.006 219.436 171.795 225.807 171.416C225.26 171.189 188.065 170.055 184.602 170.042C169.191 169.084 152.791 169.211 137.315 168.542C130.139 168.231 122.52 168.411 115.397 167.752Z"/><path fill="#C84883" d="M381.03 36.3934C382.427 36.3588 387.306 36.1341 387.668 37.1078C388.652 39.758 387.093 49.5051 386.79 52.0581L384.641 70.4198L377.869 128.315L374.413 157.854C373.962 161.751 373.197 171.026 372.037 174.415C371.021 175.233 369.593 175.321 368.326 175.32C361.938 175.314 355.531 175.032 349.147 174.826L316.017 173.836L285.196 172.889C282.443 172.812 270.796 172.891 268.621 172.27C270.542 172.04 275.186 171.927 277.42 171.779C288.024 171.176 298.634 170.69 309.249 170.322C326.193 169.643 344.9 168.396 361.685 168.249C361.783 165.996 362.662 160.848 363.018 158.463L365.752 140.2L376.164 70.5072L379.262 49.9918C379.896 45.8233 380.835 40.5177 381.03 36.3934Z"/><path fill="#C84883" d="M50.975 166.245C50.418 166.013 49.6191 166.021 49.0148 165.97C44.6279 165.601 43.764 165.832 43.401 161.247C42.9167 155.129 42.5198 148.992 42.0996 142.863L39.7601 109.74L37.3814 75.6144C36.8504 68.2465 36.3109 60.893 35.9032 53.516C35.5664 47.421 36.8368 48.0244 42.3591 47.7304C44.9805 78.4566 46.6714 109.774 49.09 140.591L50.3989 158.918C50.4988 160.344 50.7215 165.302 50.975 166.245Z"/><defs><linearGradient id="gradient_0" gradientUnits="userSpaceOnUse" x1="367.71494" y1="101.6469" x2="53.256817" y2="102.90089"><stop offset="0" stop-color="#5377D6"/><stop offset="1" stop-color="#68B2D9"/></linearGradient></defs><path fill="url(#gradient_0)" d="M52.5145 40.1821C52.4101 38.933 52.2107 37.6613 52.9396 36.6172C54.6163 35.546 74.1509 36.7066 77.7969 36.832L119.634 38.1847C123.939 38.243 128.243 38.3714 132.544 38.57C135.766 38.8954 140.906 38.9334 144.192 39.01C150.37 39.1075 156.546 39.2899 162.719 39.5571L189.944 40.421C202.562 40.9116 217.131 41.6258 229.704 41.6651C232.414 41.4129 237.062 41.4689 239.849 41.4234C245.53 41.4107 252.701 40.9219 258.492 40.7136L290.155 39.6468C299.506 39.263 311.078 39.3328 320.129 38.5369C322.91 38.4861 325.917 38.5008 328.666 38.1933L328.851 38.2057C331.523 38.526 348.254 37.8063 350.779 37.3001C353.278 37.1995 359.282 37.582 362.042 37.6864C366.727 37.8637 374.113 37.7875 378.485 38.6205C377.62 47.2806 375.669 58.3454 374.348 67.1699L366.54 119.361L362.212 148.38C361.59 152.551 360.474 162.125 359.104 165.48C356.468 166.305 349.541 166.363 346.493 166.483L329.046 167.193L254.868 170.216C245.785 170.632 234.615 170.598 225.807 171.416C225.26 171.189 188.065 170.055 184.602 170.042C169.191 169.084 152.791 169.211 137.315 168.542C130.139 168.231 122.52 168.411 115.397 167.752C113.914 167.872 110.287 167.761 108.663 167.751L76.4406 168.986C73.7901 169.083 65.8808 169.684 63.8097 169.44C62.576 168.805 62.2317 167.632 61.7738 166.377C60.1241 166.299 54.6501 165.749 53.5932 166.321C53.448 166.667 53.3543 166.806 53.3834 167.185L53.2532 166.967C53.3436 165.345 52.8891 161.059 52.7606 159.275L51.5397 142.519L46.7602 76.5815L45.4245 57.8794C45.2112 54.9645 44.693 50.5375 44.7785 47.7628C46.1494 47.7019 47.6722 47.6818 49.0088 47.4372C50.3903 47.4568 51.9197 47.4465 53.2862 47.5142C53.1036 45.2184 52.8564 42.4358 52.5145 40.1821Z"/><path fill="#C84883" d="M350.779 37.3001C353.278 37.1995 359.282 37.582 362.042 37.6864C366.727 37.8637 374.113 37.7875 378.485 38.6205C377.62 47.2806 375.669 58.3454 374.348 67.1699L366.54 119.361L362.212 148.38C361.59 152.551 360.474 162.125 359.104 165.48C356.468 166.305 349.541 166.363 346.493 166.483L329.046 167.193L254.868 170.216C245.785 170.632 234.615 170.598 225.807 171.416C225.26 171.189 188.065 170.055 184.602 170.042C169.191 169.084 152.791 169.211 137.315 168.542C130.139 168.231 122.52 168.411 115.397 167.752C116.872 167.39 125.206 167.078 127.623 166.77C142.175 166.339 157.158 165.436 171.751 164.835L275.84 160.642L326.63 158.579L342.011 157.961C344.685 157.862 347.349 157.788 350.015 157.578C352.257 157.402 352.516 154.211 352.809 152.357C353.83 145.906 354.765 139.432 355.731 132.971L361.258 95.9744L365.762 65.8515C366.211 62.8584 368.545 49.6107 368.049 47.4312C367.107 46.6067 365.576 46.5351 364.297 46.4875C357.874 46.2487 351.42 46.052 344.998 45.83L301.153 44.4027L257.807 42.9089C252.839 42.7018 248.002 42.5105 243.049 42.003C238.717 41.559 234.082 41.7606 229.704 41.6651C232.414 41.4129 237.062 41.4689 239.849 41.4234C245.53 41.4107 252.701 40.9219 258.492 40.7136L290.155 39.6468C299.506 39.263 311.078 39.3328 320.129 38.5369C322.91 38.4861 325.917 38.5008 328.666 38.1933L328.851 38.2057C331.523 38.526 348.254 37.8063 350.779 37.3001Z"/><path fill="#C84883" d="M49.0088 47.4372C50.3903 47.4568 51.9197 47.4465 53.2862 47.5142C54.1866 53.4221 54.4388 63.1515 54.9374 69.5421L58.8794 123.799L60.9196 151.923C61.0852 154.124 61.9644 164.264 61.7738 166.377C60.1241 166.299 54.6501 165.749 53.5932 166.321C53.448 166.667 53.3543 166.806 53.3834 167.185L53.2532 166.967C53.3436 165.345 52.8891 161.059 52.7606 159.275L51.5397 142.519L46.7602 76.5815L45.4245 57.8794C45.2112 54.9645 44.693 50.5375 44.7785 47.7628C46.1494 47.7019 47.6722 47.6818 49.0088 47.4372Z"/><path fill="#719FD8" d="M108.663 167.751C110.513 166.32 124.765 166.564 127.623 166.77C125.206 167.078 116.872 167.39 115.397 167.752C113.914 167.872 110.287 167.761 108.663 167.751Z"/><defs><linearGradient id="gradient_1" gradientUnits="userSpaceOnUse" x1="166.85422" y1="30.183851" x2="166.65359" y2="47.876648"><stop offset="0" stop-color="#010000" stop-opacity="0"/><stop offset="1" stop-color="black" stop-opacity="0.082352944"/></linearGradient></defs><path fill="url(#gradient_1)" d="M44.7578 46.7187C45.0355 46.5038 45.2656 46.3258 45.2656 46.3258C45.2066 42.1928 45.852 38.0843 46.9888 34.1209C47.1007 33.7306 48.4892 32.2227 48.8506 31.709L47.9638 31.1577L47.9574 30.9936C50.1958 31.0237 51.2116 30.5968 53.2621 29.7525C55.346 28.8944 80.7415 29.036 84.3641 29.2721C85.4228 29.3411 85.9677 30.338 87.0041 30.356C95.6221 30.5057 104.351 29.8079 112.958 30.2782C114.334 30.3534 114.736 31.2213 115.628 31.257C122.094 31.5164 128.677 31.2501 135.154 31.2385C137.543 31.2342 140.339 30.9588 142.689 31.3262C143.223 31.4095 143.654 31.7737 144.154 31.9578C145.396 32.4154 148.036 32.0154 149.452 32.005C157.745 31.9438 166.048 32.1808 174.343 32.2725C176.911 32.3009 179.529 32.551 182.09 32.472C183.171 32.4386 184.121 32.3134 185.122 31.8731C193.122 32.4316 201.507 32.2139 209.541 32.5586C210.778 32.6117 211.761 32.559 213.013 32.738C212.078 32.8619 210.255 32.9829 209.617 33.5847L209.603 33.918C210.069 34.2493 210.586 34.3057 211.149 34.2953C222.822 34.0801 234.519 34.4642 246.186 34.1656C246.318 34.1623 246.728 34.0221 246.853 33.9765C256.322 34.0082 265.616 34.5185 275.079 34.8342C283.065 35.1006 291.029 35.2559 299.017 35.6271C297.277 36.73 290.279 35.9004 288.091 36.4015C288.893 36.4393 289.832 36.3904 290.477 36.8303L290.503 37.1425C290.301 37.1839 282.854 37.1766 282.869 37.1834C279.661 35.7301 277.89 36.0445 274.172 36.1069C268.498 36.202 262.902 36.6174 257.273 37.4875C255.634 37.731 253.522 37.4472 251.934 37.6884C245.881 38.6073 239.779 38.6219 233.654 38.8466C233.879 38.9047 234.962 39.0798 235.106 39.0127C235.948 38.6201 251.899 40.2173 251.221 40.4717C250.178 40.4159 242.381 40.0526 241.88 40.1722L243.573 40.4874L243.476 40.6349C242.329 40.8307 240.915 41.0119 239.849 41.4234C237.062 41.4689 232.414 41.4129 229.704 41.6651C217.131 41.6258 202.562 40.9116 189.944 40.421L162.719 39.5571C156.546 39.2899 150.37 39.1075 144.192 39.01C140.906 38.9334 135.766 38.8954 132.544 38.57C132.64 37.9974 132.67 38.2225 132.456 37.7072C131.095 36.8939 119.707 36.6898 118.852 37.278L119.634 38.1847L77.7969 36.832C74.1509 36.7066 54.6163 35.546 52.9396 36.6172C52.2107 37.6613 52.4101 38.933 52.5145 40.1821C52.4092 41.3864 52.4572 44.1707 52.1522 44.954C50.6926 45.2371 47.3996 45.737 46.27 46.3046L46.145 46.7059C46.5714 47.118 48.0546 47.1041 49.0088 47.4372C47.6722 47.6818 46.1494 47.7019 44.7785 47.7628L44.7578 46.7187Z"/><path d="M299.017 35.6271C300.18 35.7176 302.026 35.8038 303.128 35.9644C301.139 36.0604 300.709 35.8906 298.783 36.4935L298.933 36.4889C299.66 37.1795 305.126 36.774 306.492 37.2561L306.476 37.6115L305.806 38.2159L305.955 38.471C310.088 38.9774 316.24 37.8949 320.129 38.5369C311.078 39.3328 299.506 39.263 290.155 39.6468L258.492 40.7136C252.701 40.9219 245.53 41.4107 239.849 41.4234C240.915 41.0119 242.329 40.8307 243.476 40.6349L243.573 40.4874L241.88 40.1722C242.381 40.0526 250.178 40.4159 251.221 40.4717C251.899 40.2173 235.948 38.6201 235.106 39.0127C234.962 39.0798 233.879 38.9047 233.654 38.8466C239.779 38.6219 245.881 38.6073 251.934 37.6884C253.522 37.4472 255.634 37.731 257.273 37.4875C262.902 36.6174 268.498 36.202 274.172 36.1069C277.89 36.0445 279.661 35.7301 282.869 37.1834C282.854 37.1766 290.301 37.1839 290.503 37.1425L290.477 36.8303C289.832 36.3904 288.893 36.4393 288.091 36.4015C290.279 35.9004 297.277 36.73 299.017 35.6271Z"/><path d="M320.129 38.5369C316.24 37.8949 310.088 38.9774 305.955 38.471L305.806 38.2159L306.476 37.6115L306.492 37.2561C305.126 36.774 299.66 37.1795 298.933 36.4889L298.783 36.4935C300.709 35.8906 301.139 36.0604 303.128 35.9644C307.129 35.8466 311.724 36.1805 315.759 36.3371C318.883 36.4583 322.288 36.506 325.364 36.7826C326.047 37.2505 326.145 37.3198 326.962 37.473L324.722 37.6572C325.391 38.1748 327.727 37.8972 328.666 38.1933C325.917 38.5008 322.91 38.4861 320.129 38.5369Z"/><path d="M184.602 170.042C188.065 170.055 225.26 171.189 225.807 171.416C219.436 171.795 213.057 172.006 206.676 172.049C207.163 171.565 207.166 171.848 207.799 171.332C205.363 171.329 202.766 170.107 200.473 171.851C198.834 171.729 197.051 171.953 195.351 171.812C192.288 171.559 189.463 170.417 186.383 170.346C185.83 170.333 185.137 170.172 184.602 170.042Z"/><path d="M119.634 38.1847L118.852 37.278C119.707 36.6898 131.095 36.8939 132.456 37.7072C132.67 38.2225 132.64 37.9974 132.544 38.57C128.243 38.3714 123.939 38.243 119.634 38.1847Z"/><path d="M52.5145 40.1821C52.8564 42.4358 53.1036 45.2184 53.2862 47.5142C51.9197 47.4465 50.3903 47.4568 49.0088 47.4372C48.0546 47.1041 46.5714 47.118 46.145 46.7059L46.27 46.3046C47.3996 45.737 50.6926 45.2371 52.1522 44.954C52.4572 44.1707 52.4092 41.3864 52.5145 40.1821Z"/><path d="M325.364 36.7826C329.024 36.8047 332.752 37.0268 336.356 37.0038L337.595 37.3568L337.475 37.3963L336.945 37.0992L337.072 37.6464C335.125 38.0303 329.542 37.9634 328.851 38.2057L328.666 38.1933C327.727 37.8972 325.391 38.1748 324.722 37.6572L326.962 37.473C326.145 37.3198 326.047 37.2505 325.364 36.7826Z"/><path d="M336.356 37.0038C341.195 37.0102 346.043 37.3321 350.779 37.3001C348.254 37.8063 331.523 38.526 328.851 38.2057C329.542 37.9634 335.125 38.0303 337.072 37.6464L336.945 37.0992L337.475 37.3963L337.595 37.3568L336.356 37.0038Z"/><path d="M200.473 171.851C202.766 170.107 205.363 171.329 207.799 171.332C207.166 171.848 207.163 171.565 206.676 172.049C205.532 172.144 204.407 172.266 203.26 172.223C202.453 171.488 201.476 171.746 200.473 171.851Z"/></svg>