<?xml version="1.0" encoding="utf-8" ?><svg xmlns="http://www.w3.org/2000/svg" xmlns:xlink="http://www.w3.org/1999/xlink" width="400" height="600" viewBox="0 0 400 600"><path fill="#E44A6C" d="M0 0L63.3711 0L265.069 0L400 0L400 254.497L400 410.153L400 535.044L400 600L332.996 600L0 600L0 315.049L0 149.047L0 30.6747L0 0Z"/><defs><linearGradient id="gradient_0" gradientUnits="userSpaceOnUse" x1="47.584255" y1="85.371544" x2="434.87839" y2="353.76605"><stop offset="0" stop-color="#FC5537"/><stop offset="1" stop-color="#FF9970"/></linearGradient></defs><path fill="url(#gradient_0)" d="M0 0L63.3711 0L265.069 0L400 0L400 254.497L400 410.153C398.614 407.843 395.844 401.151 394.434 398.264C390.784 390.844 386.66 383.665 382.088 376.774C349.657 327.945 299.875 294.703 244.275 277.62C237.857 275.648 231.3 273.899 224.938 271.769C202.39 264.219 181.401 252.484 164.022 236.139C133.673 207.596 115.84 168.248 94.341 132.972C77.4989 105.336 64.4743 88.3405 42.535 65.3896C41.6464 64.8317 35.0033 58.2353 33.6613 57.0107C25.5345 49.6459 17.0393 42.6978 8.20854 36.1933C6.2768 34.7699 1.95448 31.5627 0 30.6747L0 0Z"/><defs><linearGradient id="gradient_1" gradientUnits="userSpaceOnUse" x1="242.83331" y1="43.176468" x2="455.06854" y2="178.20445"><stop offset="0" stop-color="#FD8B3D"/><stop offset="1" stop-color="#FFC970"/></linearGradient></defs><path fill="url(#gradient_1)" d="M265.069 0L400 0L400 254.497C399.618 256.668 399.714 266.253 399.752 268.859C389.97 267.566 373.673 262.204 364.962 258.807C327.971 244.82 302.982 214.939 280.128 184.046C256.882 152.621 233.639 130.437 195.983 116.719L197.072 116.471C198.466 115.246 199.528 113.101 200.828 111.648C204.188 108.09 206.894 104.814 209.51 100.701C214.878 92.2649 220.048 83.3231 225.453 74.9484L255.548 27.9254C259.621 21.5372 263.721 15.0953 267.888 8.79964C269.445 6.44793 264.038 5.43233 269.616 3.97683C269.521 4.00145 270.919 1.79723 271.029 1.63611L272.632 1.4202C270.965 1.22793 267.997 1.13639 266.258 0.950846C265.783 0.571543 265.387 0.254594 265.069 0Z"/><defs><linearGradient id="gradient_2" gradientUnits="userSpaceOnUse" x1="72.626472" y1="-31.159672" x2="231.28569" y2="68.318398"><stop offset="0" stop-color="#FB5F19"/><stop offset="1" stop-color="#FC8C3D"/></linearGradient></defs><path fill="url(#gradient_2)" d="M63.3711 0L265.069 0C265.387 0.254594 265.783 0.571543 266.258 0.950846C267.997 1.13639 270.965 1.22793 272.632 1.4202L271.029 1.63611C270.919 1.79723 269.521 4.00145 269.616 3.97683C264.038 5.43233 269.445 6.44793 267.888 8.79964C263.721 15.0953 259.621 21.5372 255.548 27.9254L225.453 74.9484C220.048 83.3231 214.878 92.2649 209.51 100.701C206.894 104.814 204.188 108.09 200.828 111.648C199.528 113.101 198.466 115.246 197.072 116.471L195.983 116.719C183.494 112.205 173.088 110.456 160.453 107.709C127.879 100.626 97.8545 83.0045 77.3892 56.4864C73.0773 50.8992 69.9245 45.7631 66.1526 39.8677C65.8156 38.8232 61.1794 30.2669 60.3895 28.5493C55.9607 18.9188 53.5443 11.079 51.1387 0.883966C55.3714 0.338905 59.5359 0.518548 63.3711 0Z"/><path fill="#FB4D31" d="M0 0L63.3711 0C59.5359 0.518548 55.3714 0.338905 51.1387 0.883966C53.5443 11.079 55.9607 18.9188 60.3895 28.5493C61.1794 30.2669 65.8156 38.8232 66.1526 39.8677C66.1403 39.9248 66.128 39.9818 66.1157 40.0388C67.2337 45.6635 72.8975 50.101 75.088 55.3016C75.2303 55.6396 73.8215 57.8182 73.3172 58.1623C71.6371 59.3087 70.3177 59.2378 69.4346 61.2327C68.9925 62.2314 68.5039 64.9571 68.0936 65.4928C65.4285 68.9732 61.5012 71.5521 58.5209 74.7803C58.4592 74.8485 57.7743 74.7678 57.6692 74.7533C56.5694 74.601 56.2876 73.9548 55.3896 74.4499C55.1164 75.6582 55.9176 77.464 56.3671 78.6746C54.4606 77.9281 44.2027 65.0438 42.7984 64.989L42.535 65.3896C41.6464 64.8317 35.0033 58.2353 33.6613 57.0107C25.5345 49.6459 17.0393 42.6978 8.20854 36.1933C6.2768 34.7699 1.95448 31.5627 0 30.6747L0 0Z"/><defs><linearGradient id="gradient_3" gradientUnits="userSpaceOnUse" x1="-50.348564" y1="105.70487" x2="450.2139" y2="454.51718"><stop offset="0" stop-color="#FB2C41"/><stop offset="1" stop-color="#FF7972"/></linearGradient></defs><path fill="url(#gradient_3)" d="M0 30.6747C1.95448 31.5627 6.2768 34.7699 8.20854 36.1933C17.0393 42.6978 25.5345 49.6459 33.6613 57.0107C35.0033 58.2353 41.6464 64.8317 42.535 65.3896C64.4743 88.3405 77.4989 105.336 94.341 132.972C115.84 168.248 133.673 207.596 164.022 236.139C181.401 252.484 202.39 264.219 224.938 271.769C231.3 273.899 237.857 275.648 244.275 277.62C299.875 294.703 349.657 327.945 382.088 376.774C386.66 383.665 390.784 390.844 394.434 398.264C395.844 401.151 398.614 407.843 400 410.153L400 535.044C398.996 533.204 397.247 521.501 396.632 518.675C392.713 500.283 384.72 483.003 373.24 468.106C346.718 433.838 297.926 407.61 260.308 386.189C239.66 374.557 219.24 362.528 199.059 350.106C156.808 324.315 117.429 294.093 81.5905 259.951C52.5126 231.758 25.8158 199.486 7.12652 163.401C5.11547 159.518 2.55178 152.607 0.169238 149.279L0 149.047L0 30.6747Z"/><path fill="#B6476A" d="M0 315.049C10.3592 318.87 21.3191 324.628 30.809 330.129C73.9959 355.162 110.83 393.279 127.509 440.975C129.279 446.038 130.799 451.254 132.678 456.284C135.363 463.34 138.545 470.198 142.2 476.805C171.408 529.629 232.62 565.186 287.616 585.476C296.816 588.917 306.134 592.034 315.553 594.823C320.452 596.282 328.594 598.26 332.996 600L0 600L0 315.049Z"/></svg>