<?xml version="1.0" encoding="utf-8" ?><svg xmlns="http://www.w3.org/2000/svg" xmlns:xlink="http://www.w3.org/1999/xlink" width="512" height="189" viewBox="0 0 512 189"><path fill="white" d="M423.059 40.3317C436.958 39.5589 447.358 46.6641 449.956 60.6492C453.103 77.5939 451.451 100.613 430.941 105.035C430.812 105.053 430.682 105.07 430.553 105.086C410.104 107.672 402.185 90.3675 402.458 72.7057C402.586 64.463 403.438 55.3193 408.586 48.5471C411.7 44.4506 417.93 40.9214 423.059 40.3317ZM428.76 93.2842C438.393 89.2407 437.411 71.1377 436.288 62.6304C435.361 55.6066 431.305 50.7169 423.841 51.293C413.8 58.5347 411.911 91.2288 426.106 93.42C426.99 93.5646 427.895 93.5183 428.76 93.2842Z"/><path fill="white" d="M224.857 36.8341C227.943 36.71 232.681 36.636 235.75 36.7738C243.525 37.123 252.82 37.9 258.363 44.0114C264.604 50.8921 266.774 60.8807 266.469 69.9459C266.215 77.5253 263.236 88.2156 257.602 93.3988C249.233 100.7 233.462 100.278 223.069 100.295C222.662 93.3283 221.473 41.6143 223.538 37.534C223.791 37.0332 224.365 36.9898 224.857 36.8341ZM235.975 89.1536C239.82 88.5636 245.421 87.9272 248.265 84.9519C253.25 77.6995 253.265 68.1648 251.971 59.7802C250.371 49.4139 244.438 49.4769 236.384 47.5509C235.596 48.8795 236.206 84.3223 235.975 89.1536Z"/><path fill="white" d="M34.0642 34.2676C40.6462 34.2591 48.452 34.1011 54.937 34.4421C57.0231 46.1323 60.0309 57.2861 63.301 68.684C65.4048 76.2701 67.2957 83.9128 69.348 91.5128C70.449 95.5897 71.7832 99.6041 72.8502 103.69C66.8783 103.944 62.5072 104.379 56.3979 104.23C55.4764 101.318 53.841 92.1856 53.0416 88.5912C51.4407 88.199 38.3709 88.6937 35.9393 88.7962C34.682 94.7149 33.916 100.231 32.2073 106.14C27.098 106.65 21.9466 106.453 16.8033 106.572C17.81 103.175 18.4754 99.1356 19.4242 95.6262C22.96 82.5488 25.7309 69.3135 28.6927 56.1365C29.6448 51.9007 32.5702 37.6227 34.0642 34.2676ZM38.8738 76.6938C41.0826 76.894 42.5481 77.0643 44.7746 76.8941L50.4607 76.4482C49.0814 72.3799 45.9071 51.415 44.3589 49.8737C41.597 57.8665 40.2479 68.3248 38.8738 76.6938Z"/><path fill="white" d="M297.127 37.7609C301.51 37.8006 306.136 37.3886 310.449 38.0011C311.312 38.1237 312.356 39.9629 312.722 40.7069C319.003 53.4752 324.12 66.5388 330.933 79.0716C331.05 75.9936 330.69 72.8813 330.797 69.8736C331.158 59.6971 330.09 48.366 330.963 38.2863C335.031 38.1849 339.138 38.4251 343.283 38.2538C342.96 43.9726 343.253 52.8527 343.252 58.8485L343.246 100.452L343.04 100.667C341.616 101.072 330.657 100.725 328.365 100.704C326.49 97.7561 324.545 92.6613 323.053 89.3781C318.717 79.8357 314.845 69.036 309.166 60.2548C308.694 72.9658 309.007 87.5056 309.005 100.351C305.9 100.077 300.658 100.265 297.398 100.286C296.335 84.3204 296.878 68.3546 296.746 52.3619C296.708 47.7305 296.501 42.2834 297.127 37.7609Z"/><path fill="white" d="M130.425 36.1141C131.324 36.0397 132.709 36.1007 133.65 36.1137C134.156 39.4844 134.039 43.7626 134.035 47.2158L133.998 62.3621C137.946 61.6584 147.067 61.5758 151.008 62.407C150.86 53.8775 151.526 44.4311 151.044 36.2155C155.425 36.2854 159.784 36.4963 164.164 36.5303C164.475 50.0871 164.595 63.6475 164.525 77.2077C164.535 83.6861 164.879 94.331 164.08 100.518C160.514 100.764 156.772 100.734 153.187 100.736C152.424 100.79 152.254 100.815 151.507 100.643C150.201 99.2561 150.986 77.9633 151.021 74.3044C148.875 74.3197 146.444 74.0365 144.188 74.035C140.895 74.0327 137.458 74.1701 134.192 74.0226C134.395 79.8622 134.165 85.8654 134.233 91.717C134.271 94.984 134.06 98.5877 134.603 101.798C129.608 101.489 126.095 101.574 121.141 101.82C120.35 89.7374 120.943 76.2687 120.753 64.0632C120.672 58.9324 120.14 40.4972 121.404 36.7476C122.3 36.1001 128.705 36.2168 130.425 36.1141Z"/><path fill="white" d="M352.961 38.4892C356.398 38.4837 359.423 38.6164 362.841 38.8025C363.473 38.9809 364.514 39.1716 364.9 39.625C365.179 43.7148 364.591 48.803 365.486 52.5786C365.662 56.4236 365.816 60.397 365.688 64.24C370.672 64.2665 377.557 64.1231 382.345 64.572C381.759 58.2298 381.856 46.1615 382.316 39.8072C386.683 39.7594 391.051 39.7428 395.418 39.7572C395.949 48.0841 395.687 59.971 395.725 68.5082C395.767 77.7138 396.268 94.1207 394.753 102.665C390.832 102.44 386.532 102.328 382.601 102.239C382.063 93.7247 382.24 84.337 382.269 75.7398C379.922 75.8378 377.056 75.7262 374.641 75.7455C371.997 75.7666 368.232 76.0009 365.706 75.7027C365.841 84.3723 365.598 93.1034 365.764 101.793C361.435 101.64 357.257 101.485 352.922 101.524C352.225 97.9015 352.274 90.8202 352.273 86.9447L352.278 69.2851C352.271 61.7617 351.852 54.4592 352.279 46.9448C352.434 44.2071 352.331 41.1512 352.961 38.4892Z"/><path fill="white" d="M195.601 36.3596C197.902 36.2701 199.626 36.325 201.922 36.4333C203.99 47.683 207.463 59.0457 210.455 70.1208C213.062 79.7714 215.175 90.5227 218.32 99.9406C214.522 100.382 207.993 100.166 204.108 99.7423C203.092 96.6488 201.433 89.2696 200.822 86.0146C197.721 86.0549 194.62 85.9866 191.524 85.8097C189.51 85.7835 187.199 85.8623 185.273 85.376L182.388 100.519L168.432 100.478C169.942 95.7447 171.379 89.2869 172.601 84.3661L180.193 53.7841C181.116 50.1795 183.474 40.2635 185.13 37.4624C187.498 36.5162 192.875 36.4586 195.601 36.3596ZM188.072 74.8661C189.672 74.9266 191.383 75.0223 192.974 74.9993C194.447 74.9789 196.694 75.0126 198.092 74.8167C197.91 72.3198 194.772 52.2167 193.336 51.1735C190.906 56.3144 188.786 69.0677 188.072 74.8661Z"/><path fill="white" d="M474.911 42.8575C479.016 42.4431 488.485 44.7992 491.339 47.7651C493.256 49.7578 492.265 56.419 492.023 58.9727C488.072 56.9406 483.314 55.0856 478.892 54.6055C476.841 54.3827 474.189 54.372 472.517 55.7622C471.58 56.541 470.582 58.1913 470.514 59.4107C470.234 64.4383 486.367 73.7335 490.254 78.2423C493.366 81.8528 495.606 86.6308 495.209 91.4861C494.853 95.847 492.416 100.393 489.091 103.214C484.055 107.488 476.782 107.875 470.482 107.346C466.391 106.718 459.047 104.984 456.131 101.77C454.907 100.422 456.55 92.0474 456.915 89.793C464.074 94.5211 475.991 101.112 481.792 91.0957C479.249 82.5621 470.396 80.2203 464.14 74.9843C459.858 71.4009 456.178 66.7312 455.613 60.9754C455.204 56.8133 457.013 51.9547 459.661 48.7729C463.573 44.0701 469.195 43.3614 474.911 42.8575Z"/><path fill="white" d="M98.2695 35.8435C104.35 35.4213 110.3 37.7809 115.195 41.2329C113.9 44.7782 112.232 47.4729 109.959 50.436C95.0945 45.1385 90.5959 47.7728 87.703 64.7549C86.5316 71.6316 88.3599 82.3926 92.3377 88.0862C96.3461 93.8239 106.07 88.8198 112.269 89.4898C112.751 91.7945 113.285 94.1689 113.629 96.4927C113.881 97.328 114.006 98.3312 114.143 99.2034C93.0916 109.652 76.5094 99.1355 73.6661 76.6177C72.3223 65.9751 74.2742 53.5011 80.5531 44.6313C84.0646 39.6708 92.4333 36.5364 98.2695 35.8435Z"/><path fill="white" d="M92.1238 127.36C100.37 126.996 114.149 127.589 118.327 135.792C122.795 144.563 119.872 153.694 111.386 158.294C101.966 161.904 95.6908 160.572 86.3796 160.789C86.1702 150.258 85.3296 137.939 85.9158 127.511C88.0352 127.518 90.0094 127.447 92.1238 127.36ZM94.285 139.151C93.9635 141.894 93.57 152.119 94.375 154.386C98.405 153.984 103.486 153.776 107.069 151.913C110.82 149.962 113.192 143.692 110.885 139.897C107.284 133.974 99.8254 134.848 94.1141 133.337C94.2567 135.272 94.3138 137.212 94.285 139.151Z"/><path fill="white" fill-opacity="0.97254902" d="M94.285 139.151C94.5943 141.272 94.69 152.048 94.375 154.386C93.57 152.119 93.9635 141.894 94.285 139.151Z"/><path fill="white" d="M143.236 127.591C148.382 127.151 153.011 127.644 157.39 130.632C161.116 133.175 163.661 137.11 164.454 141.55C166.435 152.523 158.123 159.17 148.151 160.877C122.734 162.755 118.38 130.802 143.236 127.591ZM147.004 153.773C150.163 153.074 152.526 152.02 154.356 149.182C155.738 147.049 156.21 144.451 155.665 141.968C155.111 139.513 153.594 137.383 151.454 136.058C149.405 134.787 147.18 134.393 144.803 134.555C131.312 138.763 133.673 152.25 147.004 153.773Z"/><path fill="white" d="M190.153 127.532C194.602 127.149 199.255 127.139 203.71 127.231C216.532 127.496 224.149 130.577 216.718 143.98C221.343 147.167 223.576 150.655 220.296 155.925C217.801 159.935 208.622 160.626 204.35 160.818C202.082 160.233 193.139 160.501 190.379 160.521C190.388 159.23 190.544 158.076 189.735 157.12C189.095 154.214 189.586 131.054 190.153 127.532ZM198.249 146.795C198.316 149.636 198.641 151.784 198.137 154.559C200.622 154.4 205.364 154.351 207.503 154.05C209.102 153.964 210.63 153.889 212.225 153.706C212.768 149.006 211.758 147.337 206.756 146.813C205.404 146.667 204.046 146.598 202.686 146.608C201.317 146.683 199.59 146.823 198.249 146.795ZM198.181 141.075C201.496 140.904 207.488 140.749 210.598 140.209C213.441 131.159 203.123 134.204 198.143 133.394C198.265 135.525 198.344 138.939 198.181 141.075Z"/><path fill="white" d="M230.147 127.225C233.44 127.37 237.895 127.415 241.539 127.269C249.947 126.932 258.782 127.98 260.546 137.978C261.295 142.228 257.321 147.218 254.658 150.456C257.237 153.008 259.594 157.617 261.159 160.934L258.038 160.966C250.737 160.375 250.682 159.695 247.224 153.51C246.002 151.325 240.785 151.864 238.491 151.689L238.542 160.575C236.367 160.405 232.807 160.514 230.53 160.515C229.913 154.698 229.971 148.408 229.992 142.561C230.01 137.503 229.951 132.27 230.147 127.225ZM250.102 143.398C252.352 136.626 249.945 134.755 243.185 134.347C242.049 134.279 239.483 133.831 238.521 134.16L238.323 134.676C237.887 136.916 237.634 142.715 238.374 144.82C240.402 145.004 247.951 144.082 250.102 143.398Z"/><path fill="white" fill-opacity="0.97254902" d="M238.323 134.676C238.576 136.519 238.691 142.977 238.374 144.82C237.634 142.715 237.887 136.916 238.323 134.676Z"/><path fill="white" d="M274.381 37.546C278.44 37.455 282.643 37.5143 286.713 37.5191L287.021 92.6257C287.016 94.1833 287.085 99.0217 286.121 99.9792C282.056 99.9899 278.147 99.9957 274.093 100.352C273.345 92.1482 273.981 80.1381 274.007 71.6352C274.024 65.9498 273.133 41.6463 274.381 37.546Z"/><path fill="white" d="M311.355 127.173C312.389 127.314 314.387 127.461 315.29 127.616C322.496 128.852 330.8 141.649 334.922 147.352C334.523 142.566 334.674 131.874 335.109 127.19C338.195 127.638 340.731 127.557 343.793 127.235C343.607 130.885 343.912 134.652 343.993 138.323C344.107 143.239 344.035 148.157 343.775 153.067C343.674 155.105 343.599 158.202 343.188 160.071C342.534 160.592 340.463 160.723 339.755 160.609C332.281 159.406 324.328 146.2 319.629 140.756C320.114 145.814 319.582 155.224 319.534 160.578C317.284 160.408 313.764 160.516 311.42 160.52C310.821 149.413 310.8 138.282 311.355 127.173Z"/><path fill="white" d="M282.905 127.297C291.247 127.885 291.781 132.105 295.006 138.963L301.305 152.392C302.49 154.958 304.015 158.601 305.38 160.98C291.456 161.056 297.554 155.119 288.217 153.779C284.989 153.691 280.647 153.656 277.552 153.044C275.851 161.872 273.576 160.578 266.038 160.517C267.717 154.723 277.624 128.94 282.905 127.297ZM285.705 146.495C286.943 146.506 288.435 146.484 289.646 146.582C288.959 144.856 286.401 137.333 285.299 136.646C284.015 138.57 279.86 144.107 282.723 146.173C283.275 146.571 284.963 146.497 285.705 146.495Z"/><path fill="white" d="M402.004 127.328C404.005 127.319 406.091 127.303 407.804 128.498C411.343 130.964 421.49 155.566 422.448 160.697C413.185 163.771 414.86 154.713 406.313 154.029C403.164 153.998 399.878 153.959 396.785 153.341C395.927 155.732 394.695 158.453 392.929 160.274C392.253 160.453 391.569 160.635 390.88 160.758C389.622 160.984 387.281 161.084 386.217 160.303C385.847 160.033 385.614 159.805 385.546 159.338C385.067 156.047 396.789 132.675 399.349 129.064C400.138 127.953 400.623 127.568 402.004 127.328ZM399.638 146.962C401.174 147.109 403.12 147.353 404.627 147.29C405.699 147.352 406.001 147.544 406.865 147.081C408.109 144.975 404.822 138.438 403.392 137.845C402.351 140.884 401.218 144.159 399.638 146.962Z"/><path fill="white" d="M362.27 127.58C365.612 127.447 379.623 126.851 378.734 132.507C377.852 138.121 362.443 131.258 361.157 136.179C362.065 140.365 378.014 142.513 380.347 147.43C382.002 150.92 381.197 153.987 378.742 156.792C375.908 160.031 372.129 160.765 368.073 161.007C364.467 161.037 351.352 161.108 352.078 155.01C353.135 146.14 365.418 158.099 369.732 153.567C370.724 152.525 371.784 151.267 370.049 150.025C361.413 144.851 350.438 146.842 352.69 133.061C355.224 129.887 358.294 128.166 362.27 127.58Z"/><path fill="white" fill-opacity="0.97254902" d="M189.735 157.12C190.544 158.076 190.388 159.23 190.379 160.521C193.139 160.501 202.082 160.233 204.35 160.818C201.7 161.235 192.779 161.041 189.804 161.037L189.735 157.12Z"/><path fill="white" fill-opacity="0.97254902" d="M362.841 38.8025C363.771 38.7616 364.759 38.5977 365.515 39.0949C365.73 40.3293 365.5 50.6736 365.486 52.5786C364.591 48.803 365.179 43.7148 364.9 39.625C364.514 39.1716 363.473 38.9809 362.841 38.8025Z"/></svg>